PathFileType	4	(X/Y/Z)	C:/Users/opensim2020/Desktop/walking_exp_matlab/subject03_walking08_straight_03.trc	
DataRate	CameraRate	NumFrames	NumMarkers	Units	OrigDataRate	OrigDataStartFrame	OrigNumFrames	
100.00	100.00	4	51	mm	100.00	2693	299	
Frame#	Time	LFHD			RFHD			LBHD			RBHD			C7			T10			CLAV			STRN			RBAK			LSHO			LUPA			LELB			LFRM			LWRA			LWRB			LFIN			RSHO			RUPA			RELB			RFRM			RWRA			RWRB			RFIN			LASI			RASI			LPSI			RPSI			LTHI			LKNE			LTIB			LANK			LHEE			LTOE			RTHI			RKNE			RTIB			RANK			RHEE			RTOE			*39			*40			*41			*42			*43			*44			*45			*46			*47			*48			*49			*50			
		X1	Y1	Z1	X2	Y2	Z2	X3	Y3	Z3	X4	Y4	Z4	X5	Y5	Z5	X6	Y6	Z6	X7	Y7	Z7	X8	Y8	Z8	X9	Y9	Z9	X10	Y10	Z10	X11	Y11	Z11	X12	Y12	Z12	X13	Y13	Z13	X14	Y14	Z14	X15	Y15	Z15	X16	Y16	Z16	X17	Y17	Z17	X18	Y18	Z18	X19	Y19	Z19	X20	Y20	Z20	X21	Y21	Z21	X22	Y22	Z22	X23	Y23	Z23	X24	Y24	Z24	X25	Y25	Z25	X26	Y26	Z26	X27	Y27	Z27	X28	Y28	Z28	X29	Y29	Z29	X30	Y30	Z30	X31	Y31	Z31	X32	Y32	Z32	X33	Y33	Z33	X34	Y34	Z34	X35	Y35	Z35	X36	Y36	Z36	X37	Y37	Z37	X38	Y38	Z38	X39	Y39	Z39	X40	Y40	Z40	X41	Y41	Z41	X42	Y42	Z42	X43	Y43	Z43	X44	Y44	Z44	X45	Y45	Z45	X46	Y46	Z46	X47	Y47	Z47	X48	Y48	Z48	X49	Y49	Z49	X50	Y50	Z50	X51	Y51	Z51	

262	2.610	-1035.00513	967.41663	1618.27234	-903.85974	945.62842	1613.94360	-1053.74573	843.11249	1568.65198	-924.29205	826.89240	1564.44202	-995.30444	807.01349	1408.87390	-994.11493	775.22681	1094.78943	-998.48206	931.76056	1335.01709	-1001.59473	974.88275	1170.05481	-892.31390	760.01373	1235.76501	-1153.67639	878.19116	1371.35559	-1220.08191	847.77478	1171.86157	-1227.39319	844.13367	1047.92957	-1220.53564	861.13971	918.51782	-1183.85596	870.58337	801.69562	-1236.15466	849.41876	805.76910	-1223.14673	859.35913	722.61407	-837.65594	893.04730	1359.29541	-763.65735	941.25586	1144.86560	-749.07861	988.38171	1043.50916	-749.67279	1053.00403	922.98944	-786.60712	1117.71497	848.55182	-745.02216	1089.63049	829.40894	-754.17950	1140.31348	776.30090	-1109.82947	944.27753	933.54999	-872.86084	942.61493	932.62317	-1064.76758	780.66132	948.42761	-914.68640	781.57983	962.46851	-1162.27991	955.48706	633.30518	-1119.47571	1022.77563	469.46649	-1129.04407	1030.50830	279.07571	-1100.25061	1080.29297	72.56999	-1063.09583	1048.05872	30.65504	-1073.08728	1232.18103	61.97877	-841.85132	859.02991	639.85748	-880.10687	844.33380	461.22446	-882.77710	764.60120	284.56628	-937.54797	698.71545	78.84150	-988.95911	651.00470	52.95515	-952.86328	836.18146	31.63153	-994.99438	874.65326	1671.67236																																	 
263	2.620	-1035.69739	973.96381	1617.84863	-904.49988	952.01263	1613.44067	-1054.50232	849.82788	1567.64319	-925.02954	833.48450	1563.46057	-995.99713	813.96838	1408.14880	-995.06580	782.10431	1094.17017	-999.00317	938.80328	1334.27454	-1001.90234	981.94482	1169.29431	-893.10547	766.65625	1235.19629	-1154.27124	885.47821	1370.43286	-1220.03076	856.05615	1170.65222	-1226.81616	852.40991	1046.58008	-1219.53088	869.47113	917.02771	-1182.75366	878.95288	800.75391	-1234.91821	857.86304	804.41425	-1221.60327	867.63843	721.34180	-838.26050	899.88721	1358.46277	-764.53406	947.93591	1143.87952	-749.98041	995.24445	1042.57739	-750.74365	1059.93860	922.14612	-787.55267	1124.77942	847.77313	-746.11438	1096.64185	828.55023	-755.21942	1147.33362	775.50195	-1110.31091	951.86243	932.62708	-873.19067	948.95819	931.95251	-1066.04504	787.91766	947.68274	-915.90424	788.11548	961.71112	-1162.37061	962.63171	632.43011	-1118.58557	1028.48193	468.17258	-1128.86560	1039.56824	278.72958	-1100.78076	1093.79480	73.07575	-1063.68164	1062.23804	30.63258	-1072.47498	1246.10083	64.96281	-842.17749	864.30048	639.51868	-880.09760	848.78278	460.91226	-882.73828	767.36304	284.90436	-937.32623	699.24518	79.76694	-988.61932	651.22321	54.34344	-952.76935	836.32562	31.57339	-995.43707	880.84570	1670.70605																																	 
264	2.630	-1036.35486	980.55328	1617.43176	-905.18250	958.49438	1613.02966	-1055.28540	856.59070	1566.77722	-925.79865	840.15472	1562.61450	-996.73401	821.05481	1407.47180	-996.10150	789.13507	1093.53381	-999.48474	945.87811	1333.58643	-1002.23901	989.07904	1168.62537	-894.05060	773.41644	1234.61926	-1154.88623	892.89075	1369.60718	-1220.10095	864.39203	1169.51758	-1226.34668	860.99115	1045.45776	-1218.60242	878.16443	916.03320	-1181.65588	887.54358	799.90924	-1233.65833	866.61328	803.21411	-1219.96423	876.25671	720.17615	-838.88263	906.69324	1357.70020	-765.33130	954.52710	1142.90845	-750.95135	1001.92914	1041.65503	-751.62268	1066.62170	921.17383	-788.42090	1131.58081	846.95575	-747.12561	1103.38245	827.62653	-756.35291	1154.13416	774.62018	-1110.76526	959.47137	931.82953	-873.72333	955.48303	931.36090	-1067.40076	795.32062	947.08490	-917.24243	794.81598	961.05243	-1162.14050	969.56000	631.46167	-1117.89978	1034.26257	466.96085	-1128.81274	1047.97815	278.41379	-1101.08142	1105.65063	73.59670	-1064.43433	1074.82349	30.44214	-1071.85901	1258.29407	67.16734	-842.48138	869.71100	639.21796	-880.16467	853.37665	460.57346	-882.68372	770.13605	285.30930	-937.01971	699.80664	80.78249	-988.39203	651.60858	55.74248	-952.63428	836.48029	31.50812	-996.25232	887.18835	1669.73682																																	 
265	2.640	-1036.98279	987.11011	1617.00220	-905.88904	964.95825	1612.68982	-1056.05774	863.40851	1566.01416	-926.57855	846.78345	1561.90063	-997.63141	828.16748	1406.85022	-997.25592	796.33221	1092.95874	-999.97278	953.04163	1333.00647	-1002.62219	996.32062	1168.02869	-895.04572	780.28534	1233.94580	-1155.50708	900.44141	1368.88562	-1220.45691	872.90009	1168.46753	-1226.04980	869.71930	1044.36511	-1217.66919	886.96649	915.03973	-1179.52271	895.56287	798.37823	-1232.57898	875.74774	802.20282	-1218.21826	885.15790	719.05920	-839.45117	913.40430	1356.99646	-766.27368	961.08844	1141.97192	-751.91473	1008.48169	1040.75391	-752.56299	1073.11377	920.19232	-789.24298	1138.13623	846.12280	-748.15588	1109.73096	826.63660	-757.30756	1160.48438	773.56354	-1111.25366	967.18530	930.99182	-873.96399	962.15948	930.72888	-1068.76257	802.87317	946.62543	-918.67468	801.66992	960.47101	-1161.86316	976.58234	630.63910	-1117.45618	1040.18335	465.91034	-1128.79297	1055.74695	278.09045	-1101.30249	1115.83093	73.83584	-1064.88123	1084.73877	30.57025	-1071.16040	1268.64551	68.44947	-842.90942	875.19086	638.89874	-880.25879	858.01147	460.32971	-882.66589	772.94135	285.76837	-936.71271	700.26733	81.92637	-987.99371	651.85797	57.30905	-952.48511	836.66565	31.49638	-997.41431	893.63092	1669.57556																																	 
